<?xml version="1.0" encoding="UTF-8"?>
<svg width="1200pt" height="1200pt" version="1.1" viewBox="0 0 1200 1200" xmlns="http://www.w3.org/2000/svg">
 <path d="m977.12 849.07c-12.828-31.871-29.566-68.316-27.59-100.85 3.0977-50.652-21.758-90.938-43.391-134.46-16.211-32.676-24.312-67.559-34.355-102.49-7.1172-24.781-44.004-98.242-75.742-95.219-20.242 1.9336-46.094 59.93-66.422 44.352-15.086-11.531-21.637-30.227-38.09-40.754-24.203-15.527-45.949-4.1758-60.672 17.426-22.801 33.492-46.523 13.738-70.188 4.2227-0.023437-0.011719-0.046875-0.035156-0.085937-0.046875 0 0.011719-0.011719 0-0.011719 0.011719-15.887-6.3828-31.754-8.1133-47.27 14.062-17.004 25.777-28.332 34.621-51.672 16.367-30.445-23.82-68.867-130.2-94.969-192.83-5.1836-12.445-30.527-40.98-38.617-74.578-18.594-77.277-39.281-127.33-72.055-107.94-37.871 22.391-8.6992 118.46-3.2773 147.88 9.0703 49.367 37.285 99.551 54.406 146.46 22.234 60.805 61.402 112.91 80.484 175.22 6.0234 19.68 11.363 48.887 19.789 68.195 0 0-3.5391 1.1758-10.344 10.754-9.4922 13.402-33.742 26.438-42.254 40.43-19.727 32.422 10.91 61.055 13.648 95.137 2.207 27.395-2.3047 49.031-1.332 76.332 2.1484 61.332 69.742 59.855 114.17 70.895 49.922 12.445 79.586 55.246 127.12 72.191 29.676 10.598 36.938 19.355 53.941 46.777 10.199 16.402 19.727 33.301 29.688 49.848 27.758 36.121 0.35938-24.469-6.3242-35.746-19.871-34.992-25.453-56.207-63.121-69.66-51.047-18.191-85.969-66.254-140.07-76.43-24.227-4.5703-50.531-6.5391-73.176-16.598-35.316-15.707-30.086-49.477-23.629-81.348 6.3594-31.402-14.496-71.723-19.621-102.79-5.3047-32.207 34.969-32.484 48.059-60.613 1.5859 3.6602 0 0 0 0 7.5977 21.613 11.617 43.008 19.777 62.676 13.906 33.539 36.758 45.938 5.3398 77.16-15.145 15.793-1.4414 18.492 14.543 3.4219 16.008-16.691 20.508-18.684 12.602-41.438-4.8242-14.062-12.562-28.402-19.199-41.699-3.5156-7.0312-12.277-41.832-19.535-63.758-3.8164-16.105-11.832-43.621-15.996-53.281-19.18-44.445-28.48-85.688-52.168-128.42-27.91-50.34-40.414-101.64-65.41-153.02-24.875-51.156-37.199-97.895-45.781-147.46-6.0977-35.125 0.097656-31.441 0-32.867 4.9453 24.898 7.9922 20.629 10.234 22.402 4.7539 3.7812 18.035 7.4141 28.895-5.1953 0.81641-0.94922 8.293 0.69531 0.80469-31.586 0.73047 1.7383 3.1211-3.0234 10.414 31.645 3.9375 18.77 10.98 37.453 14.93 54.145 6.9961 30.059 29.293 49.586 41.148 78.059 14.172 33.984 28.801 67.934 44.461 101.22 4.2461 8.9883 31.859 70.922 57.875 99.59 10.633 12.758 6.4688 8.8555 22.105 23.207 5.0039 4.5859 7.2969 7.3906 14.93 7.8242 24.289-4.4531 20.387-44.328 36.758-61.934 7.6797-8.2578 16.934-6.7422 26.398-2.1367 8.4727 5.3164 14.699 11.438 18.203 21.504 4.1289 11.762 8.8555 21.758 16.441 21.637 4.5703-1.8477-0.57422-17.723-3.9492-25.223 0.64844 0.26562 1.2852 0.5625 1.9336 0.76953 31.441 10.355 42.238-17.473 59.578-36.324 15.816-17.195 29.004-10.043 41.832 2.7969 9.2031 11.688 14.555 12.109 18.086 35.387 1.4766 9.7812-1.5586 15.516 11.09 17.82 4.4414-8.8672-4.2227-17.965-4.8711-26.832 13.441 12.898 27.887 19.633 45.73 0.625 6.6016-7.0312 21.637-25.738 29.449-31.559 10.789-9.2656 25.094 7.4648 35.316 22.309 4.5352 9.5039 6.9727 18.77 4.332 29.449-2.0273 8.1953-7.5117 14.617-6.0977 20.004-0.046875 0.011719-0.10938 0.046876-0.15625 0.085938 1.5 6.7578 4.5469 13.547 7.0781 20.219 17.734 50.688 8.293 138.29 57.875 170.84 5.8086-7.5-18.602-40.801-22.738-53.879-6.8047-21.492-12.324-43.465-17.316-65.449-13.906-61.344-7.2344-81.805-6.8867-84.457 0.79297-3.1211 1.332-6.2773 1.5469-9.457 21.77 37.801 22.754 81.047 42.277 120.41 22.598 45.504 53.688 90.996 50.641 143.83-1.8828 32.723 13.379 67.668 25.152 99.324 10.812 29.16-23.27 44.16-14.016 73.598 3.8516 12.254 27.828 42.121 38.398 49.5 24.695 17.207 45.551 56.879 35.426 26.953-8.2578-26.629-50.543-52.969-57.637-80.531-6.7852-26.594 23.395-40.562 13.137-66.113zm-724.05-711.96c-5.5312-33.289 17.844-40.609 28.273-21.469 4.043 7.4297 3.2266 11.508 5.4102 22.441 1.6953 10.5-28.043 24.07-33.684-0.97266z"/>
 <path d="m873.96 725.86c-0.75781 7.1289-0.51563 14.207 0.73047 21.277 2.5664 17.977-3.0703 36.121 0.97266 53.977 4.9688 21.938 14.438 42.613 20.062 64.379 3.2383 12.492 0.25391 58.43 9.8047 58.57 12.516-47.902-18.254-88.055-23.879-133.78-1.3086-15.621 9.4336-61.82-7.6914-64.426z"/>
 <path d="m359.28 326.64c-3.0977 1.2969-7.1875 2.1602-9.8516 4.1523-8.2188 4.1875-17.137 6.9961-25.934 9.8047 0.625 21.309 43.812 3.2266 35.785-13.957z"/>
 <path d="m372.29 354.29c-2.9766 0.92578-6.9102 1.3672-9.5508 3-7.9336 2.6875-16.223 4.2852-24.457 5.7617-1.6328 20.781 43.02 8.7227 34.008-8.7617z"/>
 <path d="m392.15 832.92c-2.5547 7.4023-3.7422 14.977-3.6016 22.801 0.43359 10.57 5.3633 19.477 12.359 27.191 16.691 16.848 7.9453-8.5078 2.9297-18.301-6.875-13.406-1.3672-59.352-11.688-31.691z"/>
 <path d="m557.55 774.86c-12.602-10.969-28.945-12.887-45.469-6.2773-23.734 9.5391 3.5625 2.9297 9.5625 1.9688 8.6523-1.3555 17.844 3.3008 25.273 8.1133 17.039 8.6758 31.32 42.445 45.121 56.09 16.008 15.816 38.184 34.453 54.66 49.801 10.992 10.223 25.344 38.258 34.523 39.047-15.949-49.355-67.055-61.129-90.625-102.1-6.0469-10.477-20.891-38.41-33.047-46.645z"/>
 <path d="m560.41 751.29c9.9961 19.969 28.98 46.379 42.863 64.5 18.602 22.5 43.391 43.031 64.5 63 11.902 11.258 22.895 24.121 31.836 37.922 11.496 17.746 20.41 27.098 16.285 15.492-22.02-56.785-82.621-77.293-112.63-126.3-8.8281-14.461-53.156-81.914-42.852-54.613z"/>
 <path d="m693.23 516.19c0.39453 9.6484 2.9023 18.961 5.4961 28.188 8.8438 26.832 5.6992 55.094 16.559 81.758 11.953 29.316 27.684 56.93 38.41 86.762 5.2578 14.652 9.3945 29.809 11.195 45.277 0.91016 7.7539-4.7031 25.777 7.2969 23.676 1.7148-32.258-8.375-63.59-20.988-92.832-11.832-27.395-33.422-57.66-37.246-87.625-1.8203-14.414-8.4453-88.395-20.723-85.203z"/>
 <path d="m668.28 520.34c0.39453 9.7422 2.9531 19.094 5.5547 28.402 8.8672 26.762 5.6641 54.973 16.512 81.551 11.977 29.316 27.684 56.953 38.426 86.809 5.2578 14.629 9.4062 29.762 11.207 45.238 0.88672 7.7773-4.7031 25.738 7.2852 23.652 1.7148-32.207-8.375-63.539-20.988-92.746-11.844-27.469-33.445-57.73-37.262-87.707-1.8594-14.41-8.4492-88.367-20.734-85.199z"/>
 <path d="m573.27 563.86c13.234 33.469 28.547 62.578 48.312 92.977 18.613 28.668 37.789 56.953 56.977 85.262 5.4492 8.1133 11.797 27.445 21.504 20.16-44.184-65.316-91.344-128.27-121.08-201.53-2.9219-8.1875-12.219-13.262-5.7148 3.1289z"/>
 <path d="m594.32 649.8c-15.492-25.645-27.098-50.855-38.293-78.516-4.3789-11.426-13.934-19.164-5.7344 3.1211 27.238 73.801 73.078 140.27 121.51 202.23 10.105-4.8477-26.281-46.871-32.605-56.184-15.625-23.102-30.469-46.766-44.879-70.656z"/>
 <path d="m307.03 229.48c-2.6875 0.58984-6.1094 0.66016-8.5664 1.8711-7.2461 2.1719-14.867 3.0977-22.391 4.0664-2.668 17.305 34.906 9.1094 30.957-5.9375z"/>
</svg>
