<?xml version="1.0" encoding="UTF-8"?>
<svg width="1200pt" height="1200pt" version="1.1" viewBox="0 0 1200 1200" xmlns="http://www.w3.org/2000/svg">
 <path d="m782.78 141.82c-28.332 15.109-58.195 27.449-86.383 42.574-31.414 16.867-61.398 44.582-99.66 33.668-81.086-23.156-187.17-93.711-272.18-30.848-115.83 85.676-207.43 202.59-324.55 288.34 35.32 17.715 22.609 4.668 35.32-4.9141 19.793-14.895 39.566-29.773 59.355-44.652 35.672-26.852 67.598-64.215 98.445-96.703 80.449-84.695 162.52-175.02 291.71-138.17 33.438 6.7773 54.305 36.605 90.91 39.758 16.164 3.8555 31.836 8.082 48.723 6.7617 31.113 0.21094 60.43-28.207 87.125-41.219 21.023-10.266 42.594-19.367 63.281-30.41 82-43.773 153.77 2.0938 225.84 42.102 54.004 29.969 107.3 38.527 166.94 50.5-44.793 23.648-86.172 48.105-127.36 79.27-31.078 23.508-57.984 61.609-83.461 91.191-29.773 34.547-58.477 70.254-91.246 102.05-16.727 16.234-37.293 29.09-56.379 42.383-15.055 10.496-53.07 20.426-57.348 37.152 2.9062 1.7617 11.992 8.7695 12.379 8.8047 14.156-15.918 60.887-35.059 79.852-48.949 34.105-24.969 63.461-56.469 90.945-88.516 38.984-45.465 77.406-101.05 125.28-137.38 30.938-23.473 64.426-46.133 98.832-63.406 7.2031-3.6094 63.812-30.199 30.375-36.781-13.523-2.6602-27.098-4.8438-40.691-7.2188-61.875-10.758-108.98-27.609-163.16-57.523-61.84-34.16-130.88-71.965-202.89-37.875"/>
 <path d="m1123.3 254.86c-52.578 12.555-106.72 2.8867-159.44 14.859-32.168 0-64.711 14.984-95.684 22.062-34 7.7656-65.078 9.4375-97.777 21.27-38.281 13.859-71.453 40.285-111.77 48.879-42.754 12.414-77.035 23.473-121.5 14.281-44.391-9.1719-99.133-11.973-143.96-11.094-61.348 0.44141-118.79 25.938-178.53 39.035-33.684 7.3789-61.664 22.695-92.32 37.84-32.238 15.934-68.039 19.176-103.13 24.016-6.8828 52.121 163.91-36.324 186.31-41.238 62.422-13.645 124.4-40.762 188.02-41.449 47.297-0.91406 105.05 2.5 151.29 13.277 42.207 7.5352 77.176-5.1953 117.64-16.852 41.238-8.8047 84.555-35.391 122.71-53.773 36.961-17.801 84.484-13.77 123.7-25.621 50.801-15.355 102.88-19.984 156.04-19.934 39.582-1.4453 69.922-14.859 109.96-13.047 9.7148-30.527-33.02-15.945-51.559-12.512"/>
 <path d="m734.36 529.42c6.2695 115.21 78.055 216.3 80.945 329.73 2.6406 104.8-70.977 248.73-189.13 166.36-99.766-69.551-168.03-197.18-194.97-313.3-13.559-58.387-16.676-118.57-12.113-178.25 2.6055-34.23 7.6055-68.266 14.156-101.97 3.6797-18.965 26.57-60.395-4.9492-59.727-34.211 141.36-43.367 287.22 11.059 424.79 36.871 93.199 167.84 330.39 301.73 262.45 128.29-65.098 92.07-248.04 52.594-353.04-23.594-62.754-40.852-127.11-42.348-194.52-0.89844-40.234 2.2344-80.504 6.7266-120.47 2.1641-19.262 22.484-70.68-9.1016-66.574-9.7734 67.508-18.316 136.23-14.598 204.52"/>
 <path d="m581.36 409.33c-16.164 80.805-22.504 149-5.8984 231.79 11.129 55.43 32.188 106.81 54.902 158.33 8.3633 18.945 16.711 37.91 25.074 56.855 6.4453 14.613 9.543 35.41 28.227 19.262-41.359-85.453-83.074-177.12-96.719-271.06-6.3398-43.613-7.2539-85.258-0.91406-128.59 3.2227-22.012 26.254-77.406 4.0156-90.488-5.6055 6.9922-8.4961 14.949-8.6875 23.895"/>
 <path d="m16.059 465.98c-5.2109 0.80859-8.2578 5.5469-10.16 12.465 27.77 13.715 62.809 17.695 94.203 23.383 42.754 7.7305 78.797 19.035 117.92 36.926 25.586 11.691 57.031 16.219 80.574 31.816 27.223 17.996 75.223 48.477 110.14 41.555-3.3281 1.1094-0.75781-7.7461-2.5703-9.1719 5.6172 1.2852 0.30078-2.0078 6.0234-1.1797-0.42188-17.59-70.414-21.199-85.348-32.152-28.805-21.129-58.23-26.199-89.254-41.008-36.711-17.52-72.438-34.793-113.25-41.219-34.195-5.3906-74.711-22.047-108.27-21.414"/>
 <path d="m298.49 424.93c-33.613 1.7773-64.852 0.94922-97.863 8.1875-33.066 7.2734-97.074 9.8086-123.75 29.055 17.434 10.777 44.195-6.6562 60.309-7.8359 12.344-0.93359 24.051-2.3438 36.465-2.5 30.531-0.37109 58.953-9.1211 89.59-8.2578 47.031 1.3047 101.56 1.6562 148.59 0.89844 23.965-0.37109 24.07-17.977-0.17578-17.609-35.551 0.5625-77.773-4.7188-113.17-1.9375"/>
 <path d="m976.68 282.25c-35.566 17.801-70.273 40.535-106.55 55.711-29.633 12.414-145.57 52.559-126.97 84.57 34.953-8.6641 55.676-38.914 89.324-51.59 18.348-6.9219 38.895-12.801 56.133-21.762 39.812-20.723 96.227-74.48 142.66-69.43-18.047-1.9531 11.32-6.4805 14.879-6.7266-10.508-22.891-54.758 1.7461-69.477 9.2266"/>
</svg>
