<?xml version="1.0" encoding="UTF-8"?>
<svg width="1200pt" height="1200pt" version="1.1" viewBox="0 0 1200 1200" xmlns="http://www.w3.org/2000/svg">
 <path d="m372.67 399.53c14.902 13.602 29.801 27.164 44.688 40.766 38.25 34.941 81.637 48.543 130.04 65.223 29.559 10.176 118.16 69.027 52.641 95.602-28.141 11.406-54.34 12.758-80.727-3.5352-12.062-7.4453-16.023-15.719-22.195-0.34766 37.727 26.562 77.543 33.066 119 9.3438 57.18-32.613-20.766-95.453-51.852-107.58-48.676-18.996-98.707-28.703-137.32-66-15.488-14.176-34.461-32.316-49.977-46.469-2.4141 2.8125-2.6797 9.6914-4.3008 13"/>
 <path d="m156.47 465.57c-18.059 13.668 41.703 37.832 55.398 54.836 15.664 19.453 37.082 29.867 62.227 31.863 31.004 2.4648 55.492-15.691 84.824-15.891 24.203-0.14844 48.719 6.5195 71.047 15.344 32.504 12.879 44.848 41.5 81.984 52.988 10.32-16.078-23.574-21.996-35.703-31.996-11.367-9.3828-15.02-20.711-31.703-27.727-23.027-10.227-46.066-16.199-70.902-19.773-56.363-8.0859-98.641 37.566-150.5-9.8125-11.629-10.617-53.398-59.883-66.668-49.832z"/>
 <path d="m133.09 92.508c-30.094 18.223-33.055 53.297-6.4648 74.074 17.242 13.469 37.406 30.23 56.039 40.711 34.781 19.574 60.715 43.484 89.496 72.027 28.18 27.953 60.031 51.676 86.953 81.504 13.895 15.395 29.508 28.996 44.797 42.961 16.68 15.25 34.312 29.414 51.008 44.648 10.348 9.4531 36.828 50.043 48.812 30.938-40.176-41.77-93.109-82-133.27-123.74-25.84-26.855-51.18-55.117-80.98-77.703-24.004-18.195-44.164-49.051-68.477-63.523-31.781-18.93-55.102-35.984-87.02-55.559 1.2852 0.5625-0.66797-0.26953-2.8516-2.4492-19.012-18.824-2.6914-69.898 24.016-52.465 14.246 9.2773 27.324 21.621 40.965 31.902 24.953 18.77 46.387 44.648 70.164 65.199 62.398 53.953 120.18 112.62 181.58 167.4 48.625 43.402 87.863 104.22 141.83 140.62 48.73 43.363 98.906 92.48 109.79 159.41-13.613-1.793-49.266-7.2031-56.629-17.992-11.07-16.211-27.219-26.816-43.148-38.156-48.328-5.6367 55.289 62.559 68.168 65.641 46.668 10.949 63.832 25.945 53.402 5.6211-1.0156-19.062-26.949-80.582-38.918-96.258-41.125-61.879-111.02-105.14-159.68-160.66-59.723-68.156-129.3-129.26-197.04-189.27-28.742-25.477-59.387-49.656-86.738-76.59-19.613-19.309-76.805-85.871-105.8-68.281"/>
 <path d="m106.77 92.242c-25.461 17.859 18.543 77.004 16.094 41.004-4.7383-4.5508-23.629-19.547-16.895-25.477 15.664-13.75 21.621-1.9688 36.242-9.5703-12.105-12.102-23.645-14.301-35.441-5.957"/>
 <path d="m166.86 194.29c-30.656 8.2227-61.488 14.34-93.273 15.867-17.258 0.82812-78.773 0.61719-73.23 21.059 29.398 1.2031 64.059-8.4062 94.262-11.152 11.699-1.0703 93.887-9.3984 92.871-22.707-4.2148 0.75-16.773-4.832-20.629-3.0664"/>
 <path d="m487.18 134.09c-23.242 0.49609-43.816 12.156-65.973 17.496-24.297 5.5703-49.305 4.6445-73.754 8.6875-21.809 3.6016-43.59 7.3633-65.438 10.777-36.988 5.7969-31.637-0.29297-23.684 16.465 39.105-7.3633 78.383-14.551 118.01-18.246 37.297-2.9062 74.676-22.531 111.08-23.281 36.215-0.77734 54.527 30.562 71.316 57.137 20.871 33.055 54.141 65.586 69.453 101.22 17.457 40.672 4.3125 89.938 17.043 132.58 13.668 45.801 47.004 92.348 44.219 141.05-27.645-4.1367-63.445-63.59-75.895-88.734-10.711-21.633-14.445-46.309-25.383-68.223-8.8477-17.727-15.262-33.711-17.965-53.23-5.3398-38.422-51.73-113.12-100.43-102.82-16.949 3.6016-107.69 41.836-70.648 48.129 35.891-22.988 77.688-52.453 114.48-17.484 16.305 15.504 38.598 33.121 42.531 56.016 3.6133 21.047 4.2695 39.723 13.75 59.547 18.902 39.586 30.684 79.203 55.465 115.48 10.281 15.047 18.422 31.902 30.562 45.559 4.5781 5.1133 43.469 30.469 44.82 16.066 5.7695-61.582-36.012-111.77-48.047-170.56-11.367-55.492 1.3398-102.15-34.699-150.12-32.328-43.059-69.855-134.8-130.81-133.52"/>
 <path d="m366.74 375.79c-0.66797 13.965 0.55078 63.617 21.004 51.195-6.7617-20.363-9.5312-38.758-8.918-60.152-11.379-3.1836-10.762 0.67188-12.086 8.957"/>
 <path d="m523.48 301.21c-0.09375 22.598 10.121 53.75 10.227 76.766 0.066406 15.73-3.5742 72.961 11.301 74.141 8.8633-18.074 5.7148-141.36-13.547-150.05-2.4648 2.7695-2.5312-7.6172-5.0078-4.8477"/>
 <path d="m487.39 592.36c-37.688 38.273 49.52 53.539 48.438 14.715-15.719-2.6523-23.508 20.176-43.43 7.0938-10.59-7.0547 16.305-19.371-5.0078-21.809"/>
 <path d="m558.68 514.98c-12.746 0.5625-33.656 22.918-34.488 37.203-10.75 35.879 62.293 56.871 85.547 57.555 5.8242-19.371-23.148-13.949-36.227-19.574-11.34-4.875-45.426-23.027-35.129-38.516 5.5547-8.3555 3.0273-12.758 12.438-20.512 14.363-11.848 44.809 11.996 44.582-11.113-11.996-3.2227-24.219-5.5898-36.723-5.043"/>
 <path d="m661.79 508.07c-2.0742 0.16016-4.1641 0.33594-6.2383 0.49609 3.0781 28.195 19.746 50.953 32.812 75.68 23.121-6.4258-17.66-46.898-18.969-62.977 8.9297 1.793 12.543 3.9102 15.906-6.9766-7.125-4.7773-14.957-6.8516-23.512-6.2227"/>
 <path d="m396.3 560.34c1.7539 23.789 51.945 41.207 72.398 10-13.977-13.293-29.184 8.3008-46.789-4.3789-15.129-10.898-2.3555-26.199-18.77-28.637-2.2891 7.6719-4.5625 15.344-6.8398 23.016"/>
 <path d="m361.21 551.04c2.4648 11.434 34.086 19.988 43.297 5.4492-9.1562-8.1797-13.855-2.3555-24.059-5.6484-13.535-4.4062 9.4531-16.012-8.8242-23.816-5.0039 7.3359-8.4727 15.352-10.414 24.016"/>
 <path d="m522.83 330.3c-3.2656-1.1367-79.695 57.219-38.074 65.773 5.6641 5.6641 62.066-66.469 42.879-73.219-1.3125 3.75-1.7812 1.0703-3.1602 4.793"/>
 <path d="m527.25 387.06c-8.9297 10.094-15.516 21.688-21.957 33.469 12.891 25.516 28.195-22.09 37.445-34.621-8.207-7.6445-9.6914-3.9336-15.488 1.1523"/>
 <path d="m501.11 329.93c-16.453 8.6094-67.445 7.4023-59.547 27.391 19.09-2.543 75.238-8.2344 85.305-29.762-3.7344-0.58984 12.262-9.25 8.5273-9.8398 1.1523-1.1641-4.8867-1.5117-16.293 4.5664-5.9844 2.5547-12.156 4.8047-17.992 7.6445"/>
 <path d="m739.37 692.78c-31.742 21.633-23.43 56.16-66.562 70.391-19.078 6.3047-37.203 19.625-52.293 33.309-33.949 24.191-30.816 79.535-76.297 95.426-16.559 5.7969-50.738 14.406-56.391 33.645 9.8125 5.6367 48.637-16.723 62.012-23 48.719-13.723 53.684-79.363 90.969-105.89 23.133-16.465 58.41-24.727 75.719-45.934 10.176-12.449 10.391-33.348 22.613-43.176 10.031-8.0586 11.785-12.195 0.23047-14.766"/>
 <path d="m829.43 720.2c-72.066 20.441-32.973 126.74-77.246 169.27-11.555 11.113-25.438 4.5234-38.422 10.738-15.691 6.7461-21.031 24.5-31.059 36.977-8.6367 10.75-17.324 21.328-26.375 31.73-10.297 11.82-42.078 17.082-32.785 32.879 34.098-8.9844 52.117-36.855 72.938-62.91 10.32-12.918 13.574-26.426 31.742-29.238 19.922-3.0664 33.777-7.8047 44.02-27.617 24.23-46.762 3.4258-132.35 62.602-151-0.47266-5.2344-3.6055-9.0508-5.4141-10.832"/>
 <path d="m940.48 706.3c-14.566 10.91-30.309 23.48-30.898 43.391-0.62891 20.926 14.633 40.285 9.9062 60.992-5.8906 25.918-29.133 40.699-35.746 65.293-3.5352 13.188-8.543 25.785-14.23 38.383-6.9492 15.328-36.48 41.852-20.832 51.527 25.09-23.039 39.066-57.18 47.109-89.777 6.9219-28.113 38.129-41.676 36.43-76.043-0.99219-19.855-17.473-40.324-8.3281-60.297 6.1719-13.453 20.859-21.742 32.184-30.43-4.0547-9.1172-9.1797-10.695-15.594-3.0391"/>
 <path d="m521.58 755.72c-12.559 14.258-31.781 19.922-44.328 33.668-14.969 16.398-24.406 34.863-42.184 49.199-17.82 14.352-34.887 20.965-57.02 27.109-34.418 9.5469-37.098-1.1367-55.117 38.438 13.215 11.125 14.902-4.1758 21.633-13.871 8.5938-12.398 25.863-10.617 40.59-14.219 28.316-6.7617 54.863-21.82 74.996-43.281 17.363-18.5 26.066-36.309 48.09-50.539 15.93-10.32 49.816-32.879 50.082-49-15.391-1.5352-27.383 12.496-36.742 22.496"/>
 <path d="m925.9 623.84c-74.488 0.68359-149.55-1.4844-222.64 15.41-0.64453 18.852 16.094 8.543 28.234 6.3867 27.258-4.875 54.891-7.5117 82.574-8.5547 29.371-1.1523 58.84-0.85547 88.223-1.125 80.488-0.73438 167.67-10.578 247.2 4.6992 54.5 10.484 37.434 47.203 13.762 82.414-28.34 42.199-50.633 83.898-62.277 133.8-8.582 36.855-13.668 74.461-21.328 111.5-7.8203 37.941-17.176 112.56-59.453 128.98-32.012 12.422-71.531-3.9492-104.23-8.4609-61.543-8.4727-123.77-8.6602-185.77-8.7812-91.211-0.44141-181-8.543-270.43-26.789-89.27-18.207-178.59-36.066-267.93-53.926-9.8789 21.582 75.227 27.176 91.023 30.324 32.531 6.5078 65.09 12.945 97.609 19.586 56.711 11.566 113.3 24.18 170.73 31.797 98.652 13.078 197.04 7.7109 296 13.281 57.164 3.2383 170.04 46.91 208.11-13.055 42.773-67.352 40.672-159.88 60.688-235.41 11.395-43.055 32.453-79.496 57.152-116.22 18.086-26.867 46.949-70.566 5.9297-91.867-26.789-13.922-59.734-12.719-89.094-13.547-54.691-1.8789-109.39-1.1797-164.09-0.44531"/>
 <path d="m540.69 643.66c-25.676 25.301-59.133 7.9258-89.59 17.633-20.324 6.5078-33.629 24.82-49.668 37.738-17.164 13.816-35.852 25.582-54.891 36.641-32.438 18.516-65.707 35.746-98.453 53.711-34.461 18.93-62.211 49.613-87.367 79.176-27.699 32.559-69.805 45.355-97.902 75.988-33.965 37.059 22.277 47.527 48.758 52.172 36.574 6.4258 76.645 28.758 114.09 24.285 2.1172-15.062-19.574-22.168-73.125-26.613-12.516-1.0312-101.34-11.902-84.973-36.816 12.102-18.406 36.266-27.699 54.02-39.414 22.73-15.035 40.391-33.215 58.289-53.523 26.105-29.625 54.594-54.18 89.176-73.164 47.324-25.957 97.891-49.293 140.05-83.324 15.41-12.449 28.73-31.637 48.957-36.414 23.469-5.5039 47.727 3.6562 70.82-5.9023 18.836-7.8047 29.344-25.785 50.297-30.027 13.293-2.6914 38.676 8.5664 34.688-11.77-27.75-1.8633-52.289-0.9375-73.172 19.625"/>
 <path d="m593.02 455.15c-0.82812 14.07-13.133 54.902 7.3633 53 0.78906-13.242 1.5547-26.48 2.3438-39.734-3.8008 0-4.2578-11.555-7.9648-10.789"/>
 <path d="m38.543 467.12c-2.7461 19.652 20.215 8.9414 33.055 10.656 12.719 1.0039 25.797 4.4844 38.383 6.5312 19.305 3.1445 76.617 16.348 81.984 2.2773-20.254-14.914-52.641-9.9727-76.926-13.496-26.117-3.7734-49.828-9.4883-76.496-5.9688"/>
</svg>
